<svg width="227" height="176" viewBox="0 0 227 176" fill="none" xmlns="http://www.w3.org/2000/svg">
<rect width="227" height="176" fill="#282828"/>
<path d="M25.48 134.36C30.216 119.64 35.016 104.76 39.88 89.72C44.744 74.68 49.544 59.8 54.28 45.08C56.904 45.08 59.56 45.08 62.248 45.08C64.936 45.08 67.56 45.08 70.12 45.08C65.384 59.8 60.584 74.68 55.72 89.72C50.856 104.76 46.056 119.64 41.32 134.36C38.76 134.36 36.136 134.36 33.448 134.36C30.76 134.36 28.104 134.36 25.48 134.36ZM121.215 99.32C121.215 104.184 119.935 108.152 117.375 111.224C114.879 114.232 111.487 116.408 107.199 117.752C102.975 119.096 98.2385 119.672 92.9905 119.48C87.7425 119.352 82.3985 118.552 76.9585 117.08C76.9585 114.328 76.9585 111.576 76.9585 108.824C76.9585 106.072 76.9585 103.32 76.9585 100.568C81.9505 102.36 86.4945 103.48 90.5905 103.928C94.6865 104.376 97.9505 104.216 100.383 103.448C102.815 102.616 104.031 101.24 104.031 99.32C104.031 97.976 103.359 96.888 102.015 96.056C100.671 95.16 98.9105 94.36 96.7345 93.656C94.6225 92.952 92.3825 92.152 90.0145 91.256C87.6465 90.296 85.3745 89.112 83.1985 87.704C81.0865 86.232 79.3585 84.344 78.0145 82.04C76.6705 79.672 75.9985 76.728 75.9985 73.208C75.9985 68.856 77.1505 65.176 79.4545 62.168C81.7585 59.16 84.8625 56.888 88.7665 55.352C92.7345 53.816 97.2145 53.048 102.207 53.048C107.263 53.048 112.479 53.816 117.855 55.352C117.855 58.104 117.855 60.856 117.855 63.608C117.855 66.36 117.855 69.112 117.855 71.864C113.375 69.944 109.247 68.792 105.471 68.408C101.759 67.96 98.7825 68.152 96.5425 68.984C94.3025 69.752 93.1825 71.032 93.1825 72.824C93.1825 74.104 93.8545 75.16 95.1985 75.992C96.5425 76.824 98.2705 77.592 100.383 78.296C102.559 78.936 104.831 79.736 107.199 80.696C109.567 81.592 111.807 82.808 113.919 84.344C116.095 85.816 117.855 87.768 119.199 90.2C120.543 92.568 121.215 95.608 121.215 99.32ZM172.871 99.32C172.871 104.184 171.591 108.152 169.031 111.224C166.535 114.232 163.143 116.408 158.855 117.752C154.631 119.096 149.895 119.672 144.647 119.48C139.399 119.352 134.055 118.552 128.615 117.08C128.615 114.328 128.615 111.576 128.615 108.824C128.615 106.072 128.615 103.32 128.615 100.568C133.607 102.36 138.151 103.48 142.247 103.928C146.343 104.376 149.607 104.216 152.039 103.448C154.471 102.616 155.687 101.24 155.687 99.32C155.687 97.976 155.015 96.888 153.671 96.056C152.327 95.16 150.567 94.36 148.391 93.656C146.279 92.952 144.039 92.152 141.671 91.256C139.303 90.296 137.031 89.112 134.855 87.704C132.743 86.232 131.015 84.344 129.671 82.04C128.327 79.672 127.655 76.728 127.655 73.208C127.655 68.856 128.807 65.176 131.111 62.168C133.415 59.16 136.519 56.888 140.423 55.352C144.391 53.816 148.871 53.048 153.863 53.048C158.919 53.048 164.135 53.816 169.511 55.352C169.511 58.104 169.511 60.856 169.511 63.608C169.511 66.36 169.511 69.112 169.511 71.864C165.031 69.944 160.903 68.792 157.127 68.408C153.415 67.96 150.439 68.152 148.199 68.984C145.959 69.752 144.839 71.032 144.839 72.824C144.839 74.104 145.511 75.16 146.855 75.992C148.199 76.824 149.927 77.592 152.039 78.296C154.215 78.936 156.487 79.736 158.855 80.696C161.223 81.592 163.463 82.808 165.575 84.344C167.751 85.816 169.511 87.768 170.855 90.2C172.199 92.568 172.871 95.608 172.871 99.32ZM187.985 120.536C186.129 120.536 184.401 120.088 182.801 119.192C181.265 118.296 180.049 117.08 179.153 115.544C178.257 114.008 177.809 112.344 177.809 110.552C177.809 108.76 178.257 107.128 179.153 105.656C180.049 104.12 181.265 102.904 182.801 102.008C184.401 101.112 186.129 100.664 187.985 100.664C189.841 100.664 191.505 101.112 192.977 102.008C194.513 102.904 195.729 104.12 196.625 105.656C197.585 107.128 198.065 108.76 198.065 110.552C198.065 112.344 197.585 114.008 196.625 115.544C195.729 117.08 194.513 118.296 192.977 119.192C191.505 120.088 189.841 120.536 187.985 120.536Z" fill="white"/>
</svg>
